<svg width="25" height="25" viewBox="0 0 25 25" fill="none" xmlns="http://www.w3.org/2000/svg">
<path d="M19.5039 6.40664H5.79574C5.58949 6.40664 5.41099 6.482 5.26027 6.63273C5.10954 6.78346 5.03418 6.96195 5.03418 7.1682V7.92977C5.03418 8.13602 5.10954 8.31451 5.26027 8.46524C5.41099 8.61597 5.58949 8.69133 5.79574 8.69133H19.5039C19.7101 8.69133 19.8886 8.61597 20.0393 8.46524C20.1901 8.31451 20.2654 8.13602 20.2654 7.92977V7.1682C20.2654 6.96195 20.1901 6.78346 20.0393 6.63273C19.8886 6.482 19.7101 6.40664 19.5039 6.40664ZM19.5039 10.976H5.79574C5.58949 10.976 5.41099 11.0514 5.26027 11.2021C5.10954 11.3528 5.03418 11.5313 5.03418 11.7376V12.4991C5.03418 12.7054 5.10954 12.8839 5.26027 13.0346C5.41099 13.1853 5.58949 13.2607 5.79574 13.2607H19.5039C19.7101 13.2607 19.8886 13.1853 20.0393 13.0346C20.1901 12.8839 20.2654 12.7054 20.2654 12.4991V11.7376C20.2654 11.5313 20.1901 11.3528 20.0393 11.2021C19.8886 11.0514 19.7101 10.976 19.5039 10.976ZM19.5039 15.5454H5.79574C5.58949 15.5454 5.41099 15.6208 5.26027 15.7715C5.10954 15.9222 5.03418 16.1007 5.03418 16.307V17.0685C5.03418 17.2748 5.10954 17.4533 5.26027 17.604C5.41099 17.7547 5.58949 17.8301 5.79574 17.8301H19.5039C19.7101 17.8301 19.8886 17.7547 20.0393 17.604C20.1901 17.4533 20.2654 17.2748 20.2654 17.0685V16.307C20.2654 16.1007 20.1901 15.9222 20.0393 15.7715C19.8886 15.6208 19.7101 15.5454 19.5039 15.5454Z" fill="#F9F8F8"/>
</svg>
